<mxfile host="app.diagrams.net" modified="2024-02-19T12:12:24.784Z" agent="Mozilla/5.0 (Windows NT 10.0; Win64; x64) AppleWebKit/537.36 (KHTML, like Gecko) Chrome/121.0.0.0 Safari/537.36" etag="0dw8a9buenH5ssUl4WJW" version="23.1.5" type="device">
  <diagram name="Page-1" id="0wYfP2QB9W7366TN0-wd">
    <mxGraphModel dx="1290" dy="596" grid="1" gridSize="10" guides="1" tooltips="1" connect="1" arrows="1" fold="1" page="1" pageScale="1" pageWidth="850" pageHeight="1100" math="0" shadow="0">
      <root>
        <mxCell id="0" />
        <mxCell id="1" parent="0" />
        <mxCell id="sed4JzWXdzyUHWOQvcSt-21" value="" style="rounded=1;whiteSpace=wrap;html=1;" parent="1" vertex="1">
          <mxGeometry x="360" y="110" width="120" height="90" as="geometry" />
        </mxCell>
        <mxCell id="qKXC1brmMdw-7b1Lw4Be-31" style="edgeStyle=orthogonalEdgeStyle;rounded=0;orthogonalLoop=1;jettySize=auto;html=1;entryX=0;entryY=0.5;entryDx=0;entryDy=0;" edge="1" parent="1" source="sed4JzWXdzyUHWOQvcSt-22" target="sed4JzWXdzyUHWOQvcSt-23">
          <mxGeometry relative="1" as="geometry" />
        </mxCell>
        <mxCell id="sed4JzWXdzyUHWOQvcSt-22" value="External Entity" style="rounded=0;whiteSpace=wrap;html=1;" parent="1" vertex="1">
          <mxGeometry x="40" y="135" width="120" height="40" as="geometry" />
        </mxCell>
        <mxCell id="qKXC1brmMdw-7b1Lw4Be-32" style="edgeStyle=orthogonalEdgeStyle;rounded=0;orthogonalLoop=1;jettySize=auto;html=1;entryX=0;entryY=0.5;entryDx=0;entryDy=0;" edge="1" parent="1" source="sed4JzWXdzyUHWOQvcSt-23" target="qKXC1brmMdw-7b1Lw4Be-7">
          <mxGeometry relative="1" as="geometry" />
        </mxCell>
        <mxCell id="sed4JzWXdzyUHWOQvcSt-23" value="0&lt;br&gt;&lt;br&gt;Cloudburst &lt;br&gt;Prediction" style="ellipse;whiteSpace=wrap;html=1;" parent="1" vertex="1">
          <mxGeometry x="373.75" y="122.5" width="92.5" height="65" as="geometry" />
        </mxCell>
        <mxCell id="sed4JzWXdzyUHWOQvcSt-29" value="Level 0" style="text;html=1;align=center;verticalAlign=middle;resizable=0;points=[];autosize=1;strokeColor=none;fillColor=none;" parent="1" vertex="1">
          <mxGeometry x="395" y="80" width="60" height="30" as="geometry" />
        </mxCell>
        <mxCell id="sed4JzWXdzyUHWOQvcSt-30" value="" style="rounded=1;whiteSpace=wrap;html=1;" parent="1" vertex="1">
          <mxGeometry x="200" y="240" width="440" height="100" as="geometry" />
        </mxCell>
        <mxCell id="qKXC1brmMdw-7b1Lw4Be-33" style="edgeStyle=orthogonalEdgeStyle;rounded=0;orthogonalLoop=1;jettySize=auto;html=1;" edge="1" parent="1" source="sed4JzWXdzyUHWOQvcSt-32" target="sed4JzWXdzyUHWOQvcSt-34">
          <mxGeometry relative="1" as="geometry" />
        </mxCell>
        <mxCell id="sed4JzWXdzyUHWOQvcSt-32" value="External Entity" style="rounded=0;whiteSpace=wrap;html=1;" parent="1" vertex="1">
          <mxGeometry x="40" y="270" width="120" height="40" as="geometry" />
        </mxCell>
        <mxCell id="qKXC1brmMdw-7b1Lw4Be-34" style="edgeStyle=orthogonalEdgeStyle;rounded=0;orthogonalLoop=1;jettySize=auto;html=1;entryX=0;entryY=0.5;entryDx=0;entryDy=0;" edge="1" parent="1" source="sed4JzWXdzyUHWOQvcSt-34" target="sed4JzWXdzyUHWOQvcSt-37">
          <mxGeometry relative="1" as="geometry" />
        </mxCell>
        <mxCell id="sed4JzWXdzyUHWOQvcSt-34" value="0.1&lt;br&gt;Data &lt;br&gt;Acquisition" style="ellipse;whiteSpace=wrap;html=1;" parent="1" vertex="1">
          <mxGeometry x="230" y="255" width="80" height="70" as="geometry" />
        </mxCell>
        <mxCell id="sed4JzWXdzyUHWOQvcSt-35" value="External Entity" style="rounded=0;whiteSpace=wrap;html=1;" parent="1" vertex="1">
          <mxGeometry x="680" y="270" width="120" height="40" as="geometry" />
        </mxCell>
        <mxCell id="sed4JzWXdzyUHWOQvcSt-36" value="Level 1" style="text;html=1;align=center;verticalAlign=middle;resizable=0;points=[];autosize=1;strokeColor=none;fillColor=none;" parent="1" vertex="1">
          <mxGeometry x="395" y="210" width="60" height="30" as="geometry" />
        </mxCell>
        <mxCell id="qKXC1brmMdw-7b1Lw4Be-35" style="edgeStyle=orthogonalEdgeStyle;rounded=0;orthogonalLoop=1;jettySize=auto;html=1;entryX=0;entryY=0.5;entryDx=0;entryDy=0;" edge="1" parent="1" source="sed4JzWXdzyUHWOQvcSt-37" target="qKXC1brmMdw-7b1Lw4Be-5">
          <mxGeometry relative="1" as="geometry" />
        </mxCell>
        <mxCell id="sed4JzWXdzyUHWOQvcSt-37" value="0.2&lt;br&gt;Data preprocessing, training and evaluation" style="ellipse;whiteSpace=wrap;html=1;" parent="1" vertex="1">
          <mxGeometry x="365" y="250" width="120" height="80" as="geometry" />
        </mxCell>
        <mxCell id="sed4JzWXdzyUHWOQvcSt-42" value="" style="rounded=1;whiteSpace=wrap;html=1;" parent="1" vertex="1">
          <mxGeometry x="200" y="380" width="440" height="100" as="geometry" />
        </mxCell>
        <mxCell id="sed4JzWXdzyUHWOQvcSt-43" value="Level 2" style="text;html=1;align=center;verticalAlign=middle;resizable=0;points=[];autosize=1;strokeColor=none;fillColor=none;" parent="1" vertex="1">
          <mxGeometry x="395" y="350" width="60" height="30" as="geometry" />
        </mxCell>
        <mxCell id="qKXC1brmMdw-7b1Lw4Be-28" style="edgeStyle=orthogonalEdgeStyle;rounded=0;orthogonalLoop=1;jettySize=auto;html=1;entryX=0;entryY=0.5;entryDx=0;entryDy=0;" edge="1" parent="1" source="sed4JzWXdzyUHWOQvcSt-44" target="sed4JzWXdzyUHWOQvcSt-46">
          <mxGeometry relative="1" as="geometry" />
        </mxCell>
        <mxCell id="sed4JzWXdzyUHWOQvcSt-44" value="0.2.2&lt;br&gt;Spliting &lt;br&gt;Dataset&amp;nbsp;" style="ellipse;whiteSpace=wrap;html=1;" parent="1" vertex="1">
          <mxGeometry x="340" y="400" width="70" height="59" as="geometry" />
        </mxCell>
        <mxCell id="qKXC1brmMdw-7b1Lw4Be-25" style="edgeStyle=orthogonalEdgeStyle;rounded=0;orthogonalLoop=1;jettySize=auto;html=1;entryX=0;entryY=0.5;entryDx=0;entryDy=0;" edge="1" parent="1" source="sed4JzWXdzyUHWOQvcSt-46" target="sed4JzWXdzyUHWOQvcSt-51">
          <mxGeometry relative="1" as="geometry" />
        </mxCell>
        <mxCell id="sed4JzWXdzyUHWOQvcSt-46" value="0.2.3&lt;br&gt;Model &lt;br&gt;Training" style="ellipse;whiteSpace=wrap;html=1;" parent="1" vertex="1">
          <mxGeometry x="435" y="401" width="65" height="58" as="geometry" />
        </mxCell>
        <mxCell id="qKXC1brmMdw-7b1Lw4Be-23" style="edgeStyle=orthogonalEdgeStyle;rounded=0;orthogonalLoop=1;jettySize=auto;html=1;exitX=1;exitY=0.5;exitDx=0;exitDy=0;entryX=0;entryY=0.5;entryDx=0;entryDy=0;" edge="1" parent="1" source="sed4JzWXdzyUHWOQvcSt-48" target="sed4JzWXdzyUHWOQvcSt-44">
          <mxGeometry relative="1" as="geometry" />
        </mxCell>
        <mxCell id="sed4JzWXdzyUHWOQvcSt-48" value="0.2.1&lt;br&gt;Data Preprocessing" style="ellipse;whiteSpace=wrap;html=1;" parent="1" vertex="1">
          <mxGeometry x="220" y="390.5" width="90" height="79" as="geometry" />
        </mxCell>
        <mxCell id="qKXC1brmMdw-7b1Lw4Be-30" style="edgeStyle=orthogonalEdgeStyle;rounded=0;orthogonalLoop=1;jettySize=auto;html=1;entryX=0;entryY=0.5;entryDx=0;entryDy=0;" edge="1" parent="1" source="sed4JzWXdzyUHWOQvcSt-51" target="qKXC1brmMdw-7b1Lw4Be-8">
          <mxGeometry relative="1" as="geometry" />
        </mxCell>
        <mxCell id="sed4JzWXdzyUHWOQvcSt-51" value="0.2&lt;br&gt;Model &lt;br&gt;Evaluation&lt;br&gt;and Testing" style="ellipse;whiteSpace=wrap;html=1;" parent="1" vertex="1">
          <mxGeometry x="530" y="394.75" width="90" height="70.5" as="geometry" />
        </mxCell>
        <mxCell id="qKXC1brmMdw-7b1Lw4Be-36" style="edgeStyle=orthogonalEdgeStyle;rounded=0;orthogonalLoop=1;jettySize=auto;html=1;entryX=0;entryY=0.5;entryDx=0;entryDy=0;" edge="1" parent="1" source="qKXC1brmMdw-7b1Lw4Be-5" target="sed4JzWXdzyUHWOQvcSt-35">
          <mxGeometry relative="1" as="geometry" />
        </mxCell>
        <mxCell id="qKXC1brmMdw-7b1Lw4Be-5" value="0.3&lt;br&gt;Display&lt;br&gt;Result" style="ellipse;whiteSpace=wrap;html=1;" vertex="1" parent="1">
          <mxGeometry x="540" y="255" width="80" height="70" as="geometry" />
        </mxCell>
        <mxCell id="qKXC1brmMdw-7b1Lw4Be-7" value="External Entity" style="rounded=0;whiteSpace=wrap;html=1;" vertex="1" parent="1">
          <mxGeometry x="680" y="135" width="120" height="40" as="geometry" />
        </mxCell>
        <mxCell id="qKXC1brmMdw-7b1Lw4Be-8" value="External Entity" style="rounded=0;whiteSpace=wrap;html=1;" vertex="1" parent="1">
          <mxGeometry x="680" y="411" width="120" height="40" as="geometry" />
        </mxCell>
        <mxCell id="qKXC1brmMdw-7b1Lw4Be-11" style="edgeStyle=orthogonalEdgeStyle;rounded=0;orthogonalLoop=1;jettySize=auto;html=1;entryX=0;entryY=0.5;entryDx=0;entryDy=0;" edge="1" parent="1" source="qKXC1brmMdw-7b1Lw4Be-9" target="sed4JzWXdzyUHWOQvcSt-48">
          <mxGeometry relative="1" as="geometry" />
        </mxCell>
        <mxCell id="qKXC1brmMdw-7b1Lw4Be-9" value="External Entity" style="rounded=0;whiteSpace=wrap;html=1;" vertex="1" parent="1">
          <mxGeometry x="40" y="410" width="120" height="40" as="geometry" />
        </mxCell>
        <mxCell id="qKXC1brmMdw-7b1Lw4Be-37" value="Data Flow Diagram" style="text;html=1;align=center;verticalAlign=middle;resizable=0;points=[];autosize=1;strokeColor=none;fillColor=none;" vertex="1" parent="1">
          <mxGeometry x="355" y="28" width="130" height="30" as="geometry" />
        </mxCell>
      </root>
    </mxGraphModel>
  </diagram>
</mxfile>
